<?xml version="1.0" encoding="UTF-8" standalone="no"?>
<svg
   xmlns:dc="http://purl.org/dc/elements/1.1/"
   xmlns:cc="http://creativecommons.org/ns#"
   xmlns:rdf="http://www.w3.org/1999/02/22-rdf-syntax-ns#"
   xmlns:svg="http://www.w3.org/2000/svg"
   xmlns="http://www.w3.org/2000/svg"
   xmlns:sodipodi="http://sodipodi.sourceforge.net/DTD/sodipodi-0.dtd"
   xmlns:inkscape="http://www.inkscape.org/namespaces/inkscape"
   width="100mm"
   height="50mm"
   viewBox="0 0 100 50"
   version="1.1"
   id="svg861"
   inkscape:version="1.0.2 (e86c870879, 2021-01-15)"
   sodipodi:docname="cin.svg">
  <defs
     id="defs855" />
  <sodipodi:namedview
     id="base"
     pagecolor="#ffffff"
     bordercolor="#666666"
     borderopacity="1.0"
     inkscape:pageopacity="0.0"
     inkscape:pageshadow="2"
     inkscape:zoom="0.35"
     inkscape:cx="225.71429"
     inkscape:cy="560"
     inkscape:document-units="mm"
     inkscape:current-layer="layer1"
     inkscape:document-rotation="0"
     showgrid="false"
     height="73mm"
     inkscape:window-width="1278"
     inkscape:window-height="969"
     inkscape:window-x="0"
     inkscape:window-y="24"
     inkscape:window-maximized="0" />
  <metadata
     id="metadata858">
    <rdf:RDF>
      <cc:Work
         rdf:about="">
        <dc:format>image/svg+xml</dc:format>
        <dc:type
           rdf:resource="http://purl.org/dc/dcmitype/StillImage" />
        <dc:title></dc:title>
      </cc:Work>
    </rdf:RDF>
  </metadata>
  <g
     inkscape:label="Vrstva 1"
     inkscape:groupmode="layer"
     id="layer1">
    <g
       fill="#ffffff"
       stroke="#000000"
       stroke-miterlimit="10"
       stroke-width="0.70559"
       id="g10"
       transform="translate(-9.0785836,-6.127153)">
      <path
         d="m 55.345,46.39 -0.13631,-22.999 -16.023,20.823 c -5.6783,7.3791 -16.595,10.07 -21.696,4.3778 -10.637,-11.87 0.66389,-24.857 6.9378,-30.426 4.3125,3.474 6.9067,3.8622 11.676,1.1517 1.6426,2.2273 4.0984,5.3065 1.0062,7.6209 -3.599,2.4516 -4.9303,-1.2342 -7.5267,-2.3707 -2.2936,-0.2317 -3.08,0.7402 -4.417,2.3847 -1.337,1.6445 -2.4212,3.39 -3.377,5.1908 -4.5354,8.5452 3.8489,18.229 12.495,7.5183 l 16.204,-20.073 c 0.5596,-0.6932 1.2566,-1.2494 1.9113,-1.8203 2.3288,0.07899 3.3078,3.7182 5.8212,1.5378 2.0737,-2.0442 3.4427,-0.1687 3.443,2.7078 l 0.0021,20.601 15.833,-23.042 c 0.39987,-0.58191 0.8727,-1.1147 1.3241,-1.6674 3.7767,-3.2567 9.4727,-1.7174 9.7414,3.7105 l -0.02198,20.278 c 2.7333,-5.2766 5.2784,-12.657 7.9966,-17.945 1.3226,-2.5707 3.6066,-10.111 8.376,-6.6442 1.7373,1.8729 0.0752,4.494 -0.85799,6.2666 l -10.272,22.948 c -3.5972,7.2232 -11.32,6.4789 -11.308,-0.05412 l 0.0968,-23.613 -14.859,23.589 c -5.2225,8.2909 -12.405,5.7811 -12.369,-0.05253 z"
         stroke-linecap="round"
         stroke-linejoin="round"
         id="path4" />
      <path
         d="m 27.594,20.706 c -2.4497,-1.1064 -5.5677,-2.9506 -5.3865,-6.0507 0.08579,-0.72038 0.3955,-1.3233 0.87118,-1.865 1.5906,-1.5607 3.6492,-1.2294 5.1701,0.22641 0.49999,0.5062 1.2182,1.5321 2.0172,1.5198 0.74697,-0.0998 1.5568,-0.70291 2.1483,-1.1443 1.5984,-1.2289 3.4865,-1.7269 5.3903,-0.8908 0.79001,0.4578 1.1621,1.2775 1.3481,2.1399 0.38841,2.3351 -2.0925,4.116 -3.7889,5.2229 -1.9768,1.2315 -4.0109,1.8215 -6.3316,1.332 -0.49752,-0.13032 -0.96432,-0.29051 -1.4382,-0.49022 z"
         id="path6" />
      <path
         d="m 56.769,11.465 c 2.4282,0 4.4086,1.9804 4.4086,4.4086 0,2.4282 -1.9804,4.4086 -4.4086,4.4086 -2.4282,0 -4.4086,-1.9804 -4.4086,-4.4086 0,-2.4282 1.9804,-4.4086 4.4086,-4.4086 z"
         id="path8" />
    </g>
  </g>
</svg>
