<?xml version="1.0" encoding="UTF-8" standalone="no"?>
<!-- Created with Inkscape (http://www.inkscape.org/) -->

<svg
   version="1.1"
   id="svg731"
   width="793.70135"
   height="1122.52"
   viewBox="0 0 793.70135 1122.52"
   xmlns="http://www.w3.org/2000/svg"
   xmlns:svg="http://www.w3.org/2000/svg">
  <defs
     id="defs735">
    <clipPath
       clipPathUnits="userSpaceOnUse"
       id="clipPath745">
      <path
         d="M 0,841.89 H 595.276 V 0 H 0 Z"
         id="path743" />
    </clipPath>
  </defs>
  <g
     id="g737"
     transform="matrix(1.3333333,0,0,-1.3333333,0,1122.52)">
    <g
       id="g739">
      <g
         id="g741"
         clip-path="url(#clipPath745)">
        <g
           id="g747"
           transform="translate(474.2378,495.9549)">
          <path
             d="m 0,0 c -0.51,-9.77 -1.09,-17.31 -1.3,-19.89 -0.83,-10.36 -5.14,-58.7 -19.47,-115.52 -24.16,-95.84 -66.56,-168.48 -72.83,-179.17 -17.88,-30.44 -44.55,-70.24 -82.94,-112.05 -0.02,-0.02 -0.03,-0.04 -0.06,-0.06 -0.03,0.02 -0.04,0.04 -0.06,0.06 -38.39,41.81 -65.06,81.61 -82.94,112.05 -6.27,10.69 -48.67,83.33 -72.83,179.17 -14.33,56.82 -18.64,105.16 -19.47,115.52 -0.21,2.58 -0.79,10.12 -1.3,19.89 -3.52,68.86 -1.06,217.52 0,274.09 H 0 C 1.06,217.52 3.52,68.86 0,0 m 21.54,277.89 -0.39,20.98 h -395.5 l -0.39,-20.98 c -1.42,-75.09 -3.29,-210.74 0.02,-275.58 0.51,-9.84 1.11,-17.61 1.34,-20.49 1.08,-13.58 5.74,-62.29 20.04,-119.02 8.91,-35.31 26.96,-107.22 75.12,-186.74 20.59,-34 52.89,-84.95 101.62,-131.95 48.73,47 81.03,97.95 101.62,131.95 48.16,79.52 66.21,151.43 75.12,186.74 14.3,56.73 18.96,105.44 20.04,119.02 0.23,2.88 0.83,10.65 1.34,20.49 3.31,64.84 1.44,200.49 0.02,275.58"
             style="fill:#0f46b5;fill-opacity:1;fill-rule:nonzero;stroke:none"
             id="path749" />
        </g>
        <g
           id="g751"
           transform="translate(317.4978,259.6349)">
          <path
             d="m 0,0 c 0.41,-0.29 0.81,-0.58 1.22,-0.87 -0.19,-10.02 -0.3,-23.05 0,-38.28 0.22,-11.74 0.54,-27.08 2,-46.65 1.04,-14.09 2.81,-32.09 5.98,-53.02 -3.09,-1.56 -6.82,-3.13 -11.18,-4.38 -2.9,-0.84 -9.39,-2.48 -17.88,-2.49 -8.49,0.01 -14.98,1.65 -17.88,2.49 -4.36,1.25 -8.09,2.82 -11.18,4.38 3.17,20.93 4.94,38.93 5.98,53.02 1.46,19.57 1.78,34.91 2,46.65 0.3,15.23 0.19,28.26 0,38.28 0.41,0.29 0.81,0.58 1.22,0.87 h -95.91 c 0.41,14.04 0.82,28.08 1.23,42.12 27.99,-2.57 57.97,-4.38 89.75,-5 8.15,-0.17 16.41,-0.25 24.79,-0.25 8.38,0 16.64,0.08 24.79,0.25 31.78,0.62 61.76,2.43 89.75,5 C 95.09,28.08 95.5,14.04 95.91,0 Z m 156.74,510.41 h -353.2 c -1.06,-56.57 -3.52,-205.23 0,-274.09 0.51,-9.77 1.09,-17.31 1.3,-19.89 0.83,-10.36 5.14,-58.7 19.47,-115.52 24.16,-95.84 66.56,-168.48 72.83,-179.17 17.88,-30.44 44.55,-70.24 82.94,-112.05 0.02,-0.02 0.03,-0.04 0.06,-0.06 0.03,0.02 0.04,0.04 0.06,0.06 38.39,41.81 65.06,81.61 82.94,112.05 6.27,10.69 48.67,83.33 72.83,179.17 14.33,56.82 18.64,105.16 19.47,115.52 0.21,2.58 0.79,10.12 1.3,19.89 3.52,68.86 1.06,217.52 0,274.09"
             style="fill:#ffffff;fill-opacity:1;fill-rule:nonzero;stroke:none"
             id="path753" />
        </g>
        <g
           id="g755"
           transform="translate(297.6378,764.3649)">
          <path
             d="m 0,0 v -467.86 c -8.38,0 -16.64,0.08 -24.79,0.25 l -0.15,0.14 c 0.81,41.33 1.18,82.67 1.32,124.01 0.07,17.7 0.09,35.39 0.09,53.09 v 1.1 c 0,3.22 0,6.44 -0.01,9.66 0,2.37 0,4.74 -0.01,7.11 -0.11,60.72 -0.86,121.42 -1.01,182.14 -0.07,29.57 -0.55,66.55 23.77,89.62 0.34,0.32 0.62,0.58 0.79,0.74"
             style="fill:#0f46b5;fill-opacity:1;fill-rule:nonzero;stroke:none"
             id="path757" />
        </g>
        <g
           id="g759"
           transform="translate(297.6378,764.3649)">
          <path
             d="m 0,0 v -467.86 c -8.38,0 -16.64,0.08 -24.79,0.25 l -0.15,0.14 c 0.81,41.33 1.18,82.67 1.32,124.01 0.07,17.7 0.09,35.39 0.09,53.09 v 1.1 c 0,3.22 0,6.44 -0.01,9.66 0,2.37 0,4.74 -0.01,7.11 -0.11,60.72 -0.86,121.42 -1.01,182.14 -0.07,29.57 -0.55,66.55 23.77,89.62 0.34,0.32 0.62,0.58 0.79,0.74 z"
             style="fill:none;stroke:#000000;stroke-width:3;stroke-linecap:round;stroke-linejoin:round;stroke-miterlimit:10;stroke-dasharray:none;stroke-opacity:1"
             id="path761" />
        </g>
        <g
           id="g763"
           transform="translate(254.6777,440.2543)">
          <path
             d="m 0,0 c -22.184,15.808 -31.709,45.265 -60.313,52.376 -19.151,4.761 -40.023,-2.031 -54.878,-14.463 -7.932,16.588 -12.661,35.58 -12.939,53.991 -0.452,29.999 16.358,62.988 45.938,73.371 18.66,6.549 38.83,1.087 53.094,-12.239 C -7.942,133.27 -3.8,103.227 5.998,77.372 8.119,71.774 10.529,66.278 13.424,61.035 16.811,54.901 20.855,49.356 25.328,43.983"
             style="fill:#e61e25;fill-opacity:1;fill-rule:nonzero;stroke:#000000;stroke-width:3;stroke-linecap:round;stroke-linejoin:round;stroke-miterlimit:10;stroke-dasharray:none;stroke-opacity:1"
             id="path765" />
        </g>
        <g
           id="g767"
           transform="translate(256.9013,433.1032)">
          <path
             d="m 0,0 c -0.611,1.377 -1.109,2.782 -1.493,4.16 -2.912,10.435 -2.426,22.728 1.727,32.776 1.874,4.536 4.815,8.725 8.865,11.497 0.961,0.659 8.095,5.046 14.005,2.702 9.31,-3.693 8.838,-17.876 8.944,-26.13 C 32.203,13.077 31.175,-17.897 11.099,-11.326 5.916,-9.629 2.214,-4.993 0,0"
             style="fill:#e61e25;fill-opacity:1;fill-rule:nonzero;stroke:none"
             id="path769" />
        </g>
        <g
           id="g771"
           transform="translate(256.9013,433.1032)">
          <path
             d="m 0,0 c -0.611,1.377 -1.109,2.782 -1.493,4.16 -2.912,10.435 -2.426,22.728 1.727,32.776 1.874,4.536 4.815,8.725 8.865,11.497 0.961,0.659 8.095,5.046 14.005,2.702 9.31,-3.693 8.838,-17.876 8.944,-26.13 C 32.203,13.077 31.175,-17.897 11.099,-11.326 5.916,-9.629 2.214,-4.993 0,0 Z"
             style="fill:none;stroke:#000000;stroke-width:3;stroke-linecap:round;stroke-linejoin:round;stroke-miterlimit:10;stroke-dasharray:none;stroke-opacity:1"
             id="path773" />
        </g>
        <g
           id="g775"
           transform="translate(413.4077,259.6349)">
          <path
             d="m 0,0 h -231.54 c 0.41,14.04 0.82,28.08 1.23,42.12 27.99,-2.57 57.97,-4.38 89.75,-5 8.15,-0.17 16.41,-0.25 24.79,-0.25 8.38,0 16.64,0.08 24.79,0.25 31.78,0.62 61.76,2.43 89.75,5 C -0.82,28.08 -0.41,14.04 0,0"
             style="fill:#0f46b5;fill-opacity:1;fill-rule:nonzero;stroke:none"
             id="path777" />
        </g>
        <g
           id="g779"
           transform="translate(413.4077,259.6349)">
          <path
             d="m 0,0 h -231.54 c 0.41,14.04 0.82,28.08 1.23,42.12 27.99,-2.57 57.97,-4.38 89.75,-5 8.15,-0.17 16.41,-0.25 24.79,-0.25 8.38,0 16.64,0.08 24.79,0.25 31.78,0.62 61.76,2.43 89.75,5 C -0.82,28.08 -0.41,14.04 0,0 Z"
             style="fill:none;stroke:#000000;stroke-width:3;stroke-linecap:round;stroke-linejoin:round;stroke-miterlimit:10;stroke-dasharray:none;stroke-opacity:1"
             id="path781" />
        </g>
        <g
           id="g783"
           transform="translate(322.4277,296.7549)">
          <path
             d="m 0,0 c -8.15,-0.17 -16.41,-0.25 -24.79,-0.25 v 467.86 c 0.17,-0.16 0.45,-0.42 0.79,-0.74 24.32,-23.07 23.84,-60.05 23.77,-89.62 -0.15,-60.72 -0.9,-121.42 -1.01,-182.14 -0.01,-2.37 -0.01,-4.74 -0.01,-7.11 -0.01,-3.22 -0.01,-6.44 -0.01,-9.66 v -1.1 c 0,-17.7 0.02,-35.39 0.09,-53.09 C -1.03,82.81 -0.66,41.47 0.15,0.14 Z"
             style="fill:#0f46b5;fill-opacity:1;fill-rule:nonzero;stroke:none"
             id="path785" />
        </g>
        <g
           id="g787"
           transform="translate(322.4277,296.7549)">
          <path
             d="m 0,0 c -8.15,-0.17 -16.41,-0.25 -24.79,-0.25 v 467.86 c 0.17,-0.16 0.45,-0.42 0.79,-0.74 24.32,-23.07 23.84,-60.05 23.77,-89.62 -0.15,-60.72 -0.9,-121.42 -1.01,-182.14 -0.01,-2.37 -0.01,-4.74 -0.01,-7.11 -0.01,-3.22 -0.01,-6.44 -0.01,-9.66 v -1.1 c 0,-17.7 0.02,-35.39 0.09,-53.09 C -1.03,82.81 -0.66,41.47 0.15,0.14 Z"
             style="fill:none;stroke:#000000;stroke-width:3;stroke-linecap:round;stroke-linejoin:round;stroke-miterlimit:10;stroke-dasharray:none;stroke-opacity:1"
             id="path789" />
        </g>
        <g
           id="g791"
           transform="translate(326.6977,120.8149)">
          <path
             d="m 0,0 c -3.09,-1.56 -6.82,-3.13 -11.18,-4.38 -2.9,-0.84 -9.39,-2.48 -17.88,-2.49 -8.49,0.01 -14.98,1.65 -17.88,2.49 -4.36,1.25 -8.09,2.82 -11.18,4.38 3.17,20.93 4.94,38.93 5.98,53.02 1.46,19.57 1.78,34.91 2,46.65 0.3,15.23 0.19,28.26 0,38.28 0.41,0.29 0.81,0.58 1.22,0.87 H -9.2 c 0.41,-0.29 0.81,-0.58 1.22,-0.87 -0.19,-10.02 -0.3,-23.05 0,-38.28 0.22,-11.74 0.54,-27.08 2,-46.65 C -4.94,38.93 -3.17,20.93 0,0"
             style="fill:#0f46b5;fill-opacity:1;fill-rule:nonzero;stroke:none"
             id="path793" />
        </g>
        <g
           id="g795"
           transform="translate(326.6977,120.8149)">
          <path
             d="m 0,0 c -3.09,-1.56 -6.82,-3.13 -11.18,-4.38 -2.9,-0.84 -9.39,-2.48 -17.88,-2.49 -8.49,0.01 -14.98,1.65 -17.88,2.49 -4.36,1.25 -8.09,2.82 -11.18,4.38 3.17,20.93 4.94,38.93 5.98,53.02 1.46,19.57 1.78,34.91 2,46.65 0.3,15.23 0.19,28.26 0,38.28 0.41,0.29 0.81,0.58 1.22,0.87 H -9.2 c 0.41,-0.29 0.81,-0.58 1.22,-0.87 -0.19,-10.02 -0.3,-23.05 0,-38.28 0.22,-11.74 0.54,-27.08 2,-46.65 C -4.94,38.93 -3.17,20.93 0,0 Z"
             style="fill:none;stroke:#000000;stroke-width:3;stroke-linecap:round;stroke-linejoin:round;stroke-miterlimit:10;stroke-dasharray:none;stroke-opacity:1"
             id="path797" />
        </g>
        <g
           id="g799"
           transform="translate(340.5979,440.2543)">
          <path
             d="m 0,0 c 22.184,15.808 31.709,45.265 60.313,52.376 19.151,4.761 40.023,-2.031 54.878,-14.463 7.932,16.588 12.661,35.58 12.939,53.991 0.452,29.999 -16.358,62.988 -45.938,73.371 -18.66,6.549 -38.83,1.087 -53.094,-12.239 C 7.942,133.27 3.8,103.227 -5.998,77.372 -8.119,71.774 -10.529,66.278 -13.424,61.035 -16.811,54.901 -20.855,49.356 -25.328,43.983"
             style="fill:#e61e25;fill-opacity:1;fill-rule:nonzero;stroke:#000000;stroke-width:3;stroke-linecap:round;stroke-linejoin:round;stroke-miterlimit:10;stroke-dasharray:none;stroke-opacity:1"
             id="path801" />
        </g>
        <g
           id="g803"
           transform="translate(338.3743,433.1032)">
          <path
             d="m 0,0 c 0.611,1.377 1.109,2.782 1.493,4.16 2.912,10.435 2.426,22.728 -1.727,32.776 -1.874,4.536 -4.815,8.725 -8.865,11.497 -0.961,0.659 -8.095,5.046 -14.005,2.702 -9.31,-3.693 -8.838,-17.876 -8.944,-26.13 -0.155,-11.928 0.873,-42.902 20.949,-36.331 C -5.916,-9.629 -2.214,-4.993 0,0"
             style="fill:#e61e25;fill-opacity:1;fill-rule:nonzero;stroke:none"
             id="path805" />
        </g>
        <g
           id="g807"
           transform="translate(338.3743,433.1032)">
          <path
             d="m 0,0 c 0.611,1.377 1.109,2.782 1.493,4.16 2.912,10.435 2.426,22.728 -1.727,32.776 -1.874,4.536 -4.815,8.725 -8.865,11.497 -0.961,0.659 -8.095,5.046 -14.005,2.702 -9.31,-3.693 -8.838,-17.876 -8.944,-26.13 -0.155,-11.928 0.873,-42.902 20.949,-36.331 C -5.916,-9.629 -2.214,-4.993 0,0 Z"
             style="fill:none;stroke:#000000;stroke-width:3;stroke-linecap:round;stroke-linejoin:round;stroke-miterlimit:10;stroke-dasharray:none;stroke-opacity:1"
             id="path809" />
        </g>
      </g>
    </g>
  </g>
</svg>
